# xmcd
#
# Track frame offsets: 
#        150
#        18530
#        37462
#        59215
#        83847
#        104670
#        128825
#        151315
#        169757
#        193550
#        210027
#        228275
#
# Disc length: 3433 seconds
#
# Revision: 7
# Processed by: cddbd v1.5.2PL0 Copyright (c) Steve Scherf et al.
# Submitted via: ExactAudioCopy v0.95b4
#
DISCID=a30d670c
DTITLE=Queensrÿche - Live Evolution [CD2]
DYEAR=2001
DGENRE=Progressive Rock
TTITLE0=I Am I
TTITLE1=Damaged
TTITLE2=Empire
TTITLE3=Silent Lucidity
TTITLE4=Another Rainy Night (Without You)
TTITLE5=Jet City Woman
TTITLE6=Liquid Sky
TTITLE7=Sacred Ground
TTITLE8=Falling Down
TTITLE9=Hit The Black
TTITLE10=Breakdown
TTITLE11=The Right Side Of My Mind
EXTD=
EXTT0=
EXTT1=
EXTT2=
EXTT3=
EXTT4=
EXTT5=
EXTT6=
EXTT7=
EXTT8=
EXTT9=
EXTT10=
EXTT11=
PLAYORDER=
